<?xml version="1.0" standalone="no"?>
<!DOCTYPE svg PUBLIC "-//W3C//DTD SVG 20010904//EN"
 "http://www.w3.org/TR/2001/REC-SVG-20010904/DTD/svg10.dtd">
<svg version="1.0" xmlns="http://www.w3.org/2000/svg"
 width="920.000000pt" height="920.000000pt" viewBox="0 0 920.000000 920.000000"
 preserveAspectRatio="xMidYMid meet">

<g transform="translate(0.000000,920.000000) scale(0.100000,-0.100000)"
fill="#000000" stroke="none">
<path d="M2335 7085 c-1148 -142 -2054 -1057 -2185 -2208 -13 -113 -14 -443
-1 -552 47 -400 184 -776 401 -1102 106 -160 194 -267 326 -398 374 -371 838
-607 1379 -702 93 -16 257 -18 2275 -21 1568 -2 2207 0 2290 8 1147 113 2074
1020 2225 2175 20 158 20 472 0 630 -36 278 -113 534 -235 780 -360 730 -1014
1224 -1815 1372 -136 25 -154 26 -650 30 l-510 4 -1 -95 -2 -96 234 0 c129 0
234 -2 234 -4 0 -7 -160 -412 -645 -1626 -251 -630 -520 -1304 -597 -1499 -87
-217 -144 -348 -148 -340 -4 8 -146 437 -315 954 -379 1163 -653 2001 -750
2293 l-73 222 249 0 249 0 0 95 0 95 -917 -1 c-663 -1 -946 -5 -1018 -14z
m750 -702 c431 -1283 1375 -4107 1375 -4115 0 -12 -1812 -10 -1950 2 -322 28
-580 100 -875 244 -723 354 -1209 1028 -1305 1810 -12 98 -15 378 -5 477 43
417 198 817 445 1144 421 556 1036 894 1745 958 22 2 119 4 216 5 l176 2 178
-527z m3630 517 c1069 -98 1950 -888 2135 -1915 118 -649 -67 -1345 -492
-1850 -393 -468 -890 -744 -1528 -851 -94 -16 -210 -18 -1158 -21 l-1052 -4
21 53 c11 29 37 94 56 143 19 50 105 268 190 485 85 217 235 600 333 850 98
250 363 928 590 1505 226 578 461 1177 522 1333 l111 282 81 0 c45 0 131 -5
191 -10z"/>
</g>
</svg>
